<svg xmlns="http://www.w3.org/2000/svg" xmlns:svg="http://www.w3.org/2000/svg" id="svg15332" width="100%" height="100%" version="1.1" viewBox="0 0 128 128" xml:space="preserve" style="fill-rule:evenodd;clip-rule:evenodd;stroke-linejoin:round;stroke-miterlimit:1.41421"><metadata id="metadata15355"/><g id="g15334" transform="matrix(1,0,0,1,-2688,-800)"><g id="message_info" transform="matrix(1,0,0,1.09402,2688,362.393)"><rect id="rect15337" width="128" height="117" x="0" y="400" style="fill:none"/><g id="g15339" transform="matrix(1.3225685,0,0,1.2089096,-20.644381,362.61633)"><path d="M 64.003,32 C 37.768,32 16.5,53.268 16.5,79.499 16.5,105.733 37.768,127 64.003,127 90.233,127 111.5,105.733 111.5,79.499 111.5,53.268 90.233,32 64.003,32 Z" style="fill:#7289da;fill-opacity:1;fill-rule:nonzero" id="path15341"/></g><g id="g15347" transform="matrix(0,0.98645025,1.0791985,0,63.70074,397.76723)" style="fill:#0f0"><path style="fill:#0f0;fill-rule:nonzero;stroke-width:1.32256997" id="path15349" d="m 56.972656,16.076172 c -0.05896,0 -0.115576,0.0063 -0.173828,0.0078 -0.0467,-1.4e-4 -0.09154,-0.0049 -0.138672,-0.0039 -1.528114,0.01684 -2.859579,0.593954 -3.990234,1.72461 l -31.16211,31.162109 c -1.089506,1.089507 -1.656363,2.41071 -1.703124,3.96875 -0.04489,1.548687 0.480368,2.878806 1.582031,3.980469 l 9.935547,9.933593 c 1.096985,1.096987 2.411148,1.629017 3.957031,1.609375 1.518761,-0.0187 2.858892,-0.587407 3.996094,-1.724609 l 3.109375,-3.105469 9.050781,-9.050781 v 56.894531 c 0,1.54079 0.53488,2.875 1.603515,4.00976 1.063346,1.12683 2.375608,1.69531 3.933594,1.69531 h 14.048828 c 1.551373,0 2.856332,-0.55316 3.935547,-1.66015 1.0607,-1.08716 1.607422,-2.43668 1.607422,-4.04492 l 0.002,-50.033203 V 21.763672 c 0,-1.598988 -0.546722,-2.947249 -1.607422,-4.041016 -1.080537,-1.106992 -2.384174,-1.646484 -3.935546,-1.646484 z" transform="matrix(0.92661548,0,0,0.92661357,4.6966064,-61.460098)"/><path style="fill:#fff;fill-rule:nonzero;stroke-width:1.32256997" id="path11313" d="m 56.972656,16.076172 c -0.05896,0 -0.115576,0.0063 -0.173828,0.0078 -0.0467,-1.4e-4 -0.09154,-0.0049 -0.138672,-0.0039 -1.528114,0.01684 -2.859579,0.593954 -3.990234,1.72461 l -31.16211,31.162109 c -1.089503,1.089507 -1.656366,2.41071 -1.703124,3.96875 -0.04489,1.548687 0.480368,2.878806 1.582031,3.980469 l 9.935547,9.933593 c 1.096985,1.096987 2.411148,1.629017 3.957031,1.609375 1.518761,-0.0187 2.858892,-0.587407 3.996094,-1.724609 l 3.109375,-3.105469 9.048828,-9.048828 v 6.859375 l 0.002,50.033203 c 0,0.19259 0.0087,0.3822 0.02539,0.56836 0.115099,1.36044 0.648677,2.51992 1.582031,3.47656 0.772823,0.79271 1.663846,1.29653 2.675781,1.52148 0.221615,0.0498 0.448017,0.0892 0.681641,0.11133 0.160799,0.0151 0.325677,0.0212 0.492187,0.0234 0.0271,3.5e-4 0.05282,0.004 0.08008,0.004 0.002,1e-5 0.0039,0 0.0059,0 h 14.042968 c 0.02922,0 0.05689,-0.004 0.08594,-0.004 0.16651,-0.002 0.331388,-0.008 0.492187,-0.0234 0.18307,-0.0174 0.363366,-0.0418 0.539063,-0.0762 0.04846,-0.009 0.09467,-0.0245 0.142578,-0.0352 1.011935,-0.22495 1.902958,-0.72877 2.675781,-1.52148 0.933354,-0.95664 1.466932,-2.11612 1.582031,-3.47656 0.01671,-0.18616 0.02539,-0.37577 0.02539,-0.56836 l 0.002,-50.033203 v -6.859375 l 9.048828,9.048828 3.109375,3.105469 c 1.137202,1.137202 2.477333,1.705909 3.996094,1.724609 1.545883,0.01964 2.860046,-0.512388 3.957031,-1.609375 l 9.93555,-9.933593 c 1.10166,-1.101663 1.62692,-2.431782 1.58203,-3.980469 -0.0468,-1.55804 -0.61362,-2.879243 -1.70312,-3.96875 L 75.330078,17.804688 c -1.130655,-1.130656 -2.46212,-1.70777 -3.990234,-1.72461 -0.04713,-0.001 -0.09197,0.0038 -0.138672,0.0039 -0.05837,-0.0016 -0.114737,-0.0078 -0.173828,-0.0078 h -0.0039 z" transform="matrix(0.92661548,0,0,0.92661357,4.6966064,-61.460098)"/></g></g></g></svg>